<?xml version="1.0" encoding="iso-8859-1"?>
<!-- Uploaded to: SVG Repo, www.svgrepo.com, Generator: SVG Repo Mixer Tools -->
<svg fill="#000000" height="800px" width="800px" version="1.1" id="Layer_1" xmlns="http://www.w3.org/2000/svg" xmlns:xlink="http://www.w3.org/1999/xlink" 
	 viewBox="0 0 512 512" xml:space="preserve">
<g>
	<g>
		<path d="M314.642,198.062V168.13v-16.439v-42.202c0-32.335-26.307-58.642-58.642-58.642s-58.642,26.307-58.642,58.642v42.202
			v16.439v29.932L0,274.306v87.024v18.68v25.249h33.391v-29.008l82.612-9.298v38.307h33.391v-42.065l53.863-6.063l28.124,70.629
			h-22.932v33.391h95.097v-33.391h-22.931l28.124-70.629l53.864,6.063v42.065h33.391v-38.307l82.612,9.298v29.008H512v-25.249
			v-18.68v-87.024L314.642,198.062z M197.358,324.193l-47.964,5.399v-36.044h-33.39v39.802l-82.612,9.299v-45.448l163.967-63.344
			V324.193z M281.249,335.913L256,399.327l-25.25-63.413V168.13h50.5V335.913z M281.25,134.738h-50.5v-25.249h-0.001
			c0-13.923,11.327-25.251,25.25-25.251c13.923,0,25.251,11.327,25.251,25.251V134.738z M478.609,342.65l-82.612-9.299v-39.802
			h-33.391v36.044l-47.964-5.399v-90.335l163.968,63.344V342.65z"/>
	</g>
</g>
<g>
	<g>
		<circle cx="256" cy="109.49" r="10.401"/>
	</g>
</g>
</svg>