<svg version="1.1" xmlns="http://www.w3.org/2000/svg" xmlns:xlink="http://www.w3.org/1999/xlink" width="48px" height="48px" viewBox="0,0,256,256"><g fill="none" fill-rule="nonzero" stroke="none" stroke-width="1" stroke-linecap="butt" stroke-linejoin="miter" stroke-miterlimit="10" stroke-dasharray="" stroke-dashoffset="0" font-family="none" font-weight="none" font-size="none" text-anchor="none" style="mix-blend-mode: normal"><g transform="scale(10.66667,10.66667)"><path d="M0,0h24v24h-24z" fill="none"></path><path d="M14.59,8l-2.59,2.59l-2.59,-2.59l-1.41,1.41l2.59,2.59l-2.59,2.59l1.41,1.41l2.59,-2.59l2.59,2.59l1.41,-1.41l-2.59,-2.59l2.59,-2.59zM12,2c-5.53,0 -10,4.47 -10,10c0,5.53 4.47,10 10,10c5.53,0 10,-4.47 10,-10c0,-5.53 -4.47,-10 -10,-10zM12,20c-4.41,0 -8,-3.59 -8,-8c0,-4.41 3.59,-8 8,-8c4.41,0 8,3.59 8,8c0,4.41 -3.59,8 -8,8z" fill="#ff0000"></path></g></g></svg>