<?xml version="1.0" encoding="iso-8859-1"?>
<!-- Uploaded to: SVG Repo, www.svgrepo.com, Generator: SVG Repo Mixer Tools -->
<!DOCTYPE svg PUBLIC "-//W3C//DTD SVG 1.1//EN" "http://www.w3.org/Graphics/SVG/1.1/DTD/svg11.dtd">
<svg fill="#000000" version="1.1" id="Capa_1" xmlns="http://www.w3.org/2000/svg" xmlns:xlink="http://www.w3.org/1999/xlink" 
	 width="800px" height="800px" viewBox="0 0 327.388 327.388"
	 xml:space="preserve">
<g>
	<g>
		<path d="M45.791,289.437l83.924,5.985l4.912,31.628c0,0,16.236,1.9,19.045-3.313c2.807-5.209,10.022-4.205,10.022-4.205
			s7.219-1.004,10.025,4.205c2.801,5.214,19.045,3.313,19.045,3.313l4.909-31.628l83.927-5.985c0,0-1.253,8.844,9.352,10.045
			v-66.953c0,0-1.48-6.006-9.905-4.805l-4.147,16.13l-74.716-99.733h24.058l0.378-13.124l-40.871-45.249c0,0-6.793-9.398-8-31.048
			C176.546,33.049,163.693,0,163.693,0s-12.852,33.049-14.056,54.699c-1.204,21.649-7.998,31.048-7.998,31.048l-40.871,45.249
			l0.383,13.124h24.058l-74.712,99.733l-4.15-16.13c-8.427-1.201-9.911,4.805-9.911,4.805v66.953
			C47.041,298.28,45.791,289.437,45.791,289.437z"/>
	</g>
</g>
</svg>