<svg version="1.1" xmlns="http://www.w3.org/2000/svg" xmlns:xlink="http://www.w3.org/1999/xlink" width="48px" height="48px" viewBox="0,0,256,256"><g fill="none" fill-rule="nonzero" stroke="none" stroke-width="1" stroke-linecap="butt" stroke-linejoin="miter" stroke-miterlimit="10" stroke-dasharray="" stroke-dashoffset="0" font-family="none" font-weight="none" font-size="none" text-anchor="none" style="mix-blend-mode: normal"><g transform="scale(12.8,12.8)"><rect x="0" y="0" width="20" height="20" fill="none"></rect><path d="M12.25,10c0,1.24 -1.01,2.25 -2.25,2.25c-1.24,0 -2.25,-1.01 -2.25,-2.25c0,-1.24 1.01,-2.25 2.25,-2.25c1.24,0 2.25,1.01 2.25,2.25zM18,10c0,4.42 -3.58,8 -8,8c-4.42,0 -8,-3.58 -8,-8c0,-4.42 3.58,-8 8,-8c4.42,0 8,3.58 8,8zM16.5,10h-3.25c0,-1.79 -1.46,-3.25 -3.25,-3.25c-1.79,0 -3.25,1.46 -3.25,3.25h-3.25c0,3.58 2.92,6.5 6.5,6.5c3.58,0 6.5,-2.92 6.5,-6.5z" fill="#ff0000"></path></g></g></svg>