<?xml version="1.0" encoding="iso-8859-1"?>
<!-- Uploaded to: SVG Repo, www.svgrepo.com, Generator: SVG Repo Mixer Tools -->
<svg fill="#000000" height="800px" width="800px" version="1.1" id="Layer_1" xmlns="http://www.w3.org/2000/svg" xmlns:xlink="http://www.w3.org/1999/xlink" 
	 viewBox="0 0 511.999 511.999" xml:space="preserve">
<g>
	<g>
		<g>
			<path d="M401.727,188.215L509.869,39.369c2.582-3.555,2.838-8.295,0.649-12.106c-2.187-3.81-6.427-5.97-10.781-5.543
				l-89.189,8.938c-3.163,0.317-6.04,1.969-7.909,4.54L301.05,175.024l-46.06-33.465c-2.393-1.738-5.376-2.45-8.298-1.993
				c-2.92,0.463-5.538,2.067-7.276,4.459l-15.365,21.149c-2.937-20.207-13.675-39.261-31.46-52.183
				c-2.392-1.738-5.377-2.452-8.298-1.993c-2.92,0.463-5.538,2.067-7.276,4.459l-32.989,45.406l-22.554-16.387
				c-4.981-3.618-11.956-2.518-15.575,2.466c-3.619,4.982-2.516,11.956,2.466,15.575l22.553,16.386L97.929,224.31
				c-1.739,2.393-2.455,5.378-1.993,8.298c0.463,2.92,2.067,5.538,4.459,7.276c13.89,10.092,30.01,14.949,45.994,14.949
				c4.477,0,8.943-0.384,13.345-1.138l-15.353,21.131c-3.619,4.982-2.516,11.956,2.466,15.575l31.41,22.821l-60.077,6.02
				c-3.163,0.317-6.04,1.969-7.909,4.54L2.13,472.629c-2.582,3.555-2.838,8.295-0.649,12.105c2,3.487,5.702,5.599,9.666,5.599
				c0.37,0,0.743-0.019,1.115-0.056l89.189-8.937c3.163-0.317,6.04-1.969,7.909-4.54l101.589-139.825l48.66,35.354
				c1.917,1.393,4.214,2.13,6.554,2.13c0.581,0,1.164-0.046,1.744-0.137c2.92-0.463,5.538-2.067,7.276-4.459l15.365-21.149
				c2.937,20.207,13.675,39.261,31.46,52.183c1.917,1.393,4.214,2.13,6.554,2.13c0.581,0,1.164-0.046,1.744-0.137
				c2.92-0.463,5.538-2.067,7.276-4.459l32.748-45.074l28.62,20.794c1.979,1.438,4.272,2.131,6.545,2.131
				c3.448,0,6.849-1.594,9.03-4.597c3.619-4.982,2.516-11.956-2.466-15.575l-28.621-20.796l33.23-45.738
				c3.619-4.982,2.516-11.956-2.466-15.575c-17.785-12.922-39.225-17.246-59.351-13.795l15.365-21.148
				c3.619-4.982,2.516-11.956-2.466-15.575l-34.009-24.709l60.077-6.019C396.982,192.438,399.86,190.787,401.727,188.215z
				 M123.179,227.497l64.669-89.011c17.678,19.254,19.995,48.982,4.058,70.928l-0.017,0.023
				C175.94,231.377,146.949,238.358,123.179,227.497z M94.256,459.651l-59.46,5.958l90.58-124.674l59.46-5.959L94.256,459.651z
				 M368.18,281.344c7.885,0,15.818,1.651,23.24,5.044L326.75,375.4c-17.678-19.254-19.995-48.982-4.058-70.928l0.015-0.02
				C333.677,289.359,350.812,281.344,368.18,281.344z M345.62,234.971l-34.407,47.36l-36.672-26.644
				c-4.98-3.619-11.956-2.517-15.575,2.466c-3.62,4.982-2.516,11.956,2.466,15.575l36.672,26.644l-34.409,47.361l-39.64-28.799
				l17.205-23.679c3.619-4.982,2.516-11.956-2.466-15.575c-4.981-3.618-11.956-2.517-15.575,2.466l-17.205,23.679l-37.04-26.911
				L250.9,166.152L345.62,234.971z M327.163,177.022l90.58-124.674l59.46-5.959l-90.58,124.675L327.163,177.022z"/>
			<path d="M244.071,233.549l-0.545-0.396c-4.981-3.618-11.954-2.517-15.575,2.466c-3.619,4.982-2.516,11.956,2.466,15.575
				l0.545,0.396c1.979,1.438,4.272,2.131,6.545,2.131c3.448,0,6.849-1.594,9.03-4.597
				C250.157,244.142,249.052,237.169,244.071,233.549z"/>
		</g>
	</g>
</g>
</svg>